# xmcd
#
# Track frame offsets:
#  150
#  14164
#  26496
#  38118
#  51514
#  69334
#  78697
#  91739
#  104823
#  115460
#  128523
#  142342
#  151458
#  167171
#  180132
#  192483
#  204788
#  219667
#  233241
#  244147
#  261731
#  273390
#
# Disc length: 3801 seconds
#
# Revision: 1
# Processed by: cddbd v1.5.1PL2 Copyright (c) Steve Scherf et al.
# Submitted via: Collectorz.com_Music_Collector 6.9
#
DISCID=4b0ed716
DTITLE=Nancy Wilson - The Great American Songbook, Disc 2
DYEAR=2005
DGENRE=Pop Classic Vocal
TTITLE0=Bewitched
TTITLE1=Try a Little Tenderness
TTITLE2=At Long Last Love
TTITLE3=In a Sentimental Mood
TTITLE4=When the Sun Comes Up
TTITLE5=I Thought About You
TTITLE6=Darn That Dream
TTITLE7=The Very Thought of You
TTITLE8=Like Someone in Love
TTITLE9=Angel Eyes
TTITLE10=My One and Only Love
TTITLE11=The Song Is You
TTITLE12=Lush Life
TTITLE13=It Never Entered My Mind
TTITLE14=Prelude to a Kiss
TTITLE15=By Myself
TTITLE16=Glad to Be Unhappy
TTITLE17=Time After Time
TTITLE18=Hello Dolly
TTITLE19=Supper Time
TTITLE20=Someone to Watch Over Me
TTITLE21=You'd Be So Nice to Come Home to
EXTD=
EXTT0=
EXTT1=
EXTT2=
EXTT3=
EXTT4=
EXTT5=
EXTT6=
EXTT7=
EXTT8=
EXTT9=
EXTT10=
EXTT11=
EXTT12=
EXTT13=
EXTT14=
EXTT15=
EXTT16=
EXTT17=
EXTT18=
EXTT19=
EXTT20=
EXTT21=
PLAYORDER=
